<svg width="30" height="27" viewBox="0 0 30 27" fill="none" xmlns="http://www.w3.org/2000/svg">
<path d="M20.1335 12.6661C20.6117 12.9442 21.2249 12.7812 21.5019 12.3024L26.8594 3.04035C27.1359 2.56239 27.7475 2.39896 28.2255 2.67529L29.0893 3.17461C29.5674 3.45097 29.731 4.06259 29.4547 4.54073L22.6097 16.3854C22.3336 16.8631 21.7228 17.0269 21.2447 16.7516L13.2101 12.1233C12.7321 11.848 12.1214 12.0117 11.8453 12.4893L6.05759 22.4995C5.67213 23.1661 6.15322 24 6.9233 24H29C29.5523 24 30 24.4477 30 25V26C30 26.5523 29.5523 27 29 27H1C0.447716 27 0 26.5523 0 26V0.999999C0 0.447715 0.447715 0 1 0H2C2.55228 0 3 0.447715 3 1V18.0733C3 19.0967 4.35517 19.4594 4.86634 18.5728L10.7487 8.3696C11.0252 7.88986 11.639 7.72623 12.1177 8.00461L20.1335 12.6661Z" fill="#75CE79"/>
</svg>
