<svg width="36" height="36" viewBox="0 0 36 36" fill="none" xmlns="http://www.w3.org/2000/svg">
<path d="M33.53 21.58L28.59 18.75V13.09C28.5897 12.9128 28.5423 12.7389 28.4527 12.586C28.3631 12.4332 28.2345 12.3069 28.08 12.22L22.64 9.10004C22.488 9.01227 22.3155 8.96606 22.14 8.96606C21.9645 8.96606 21.792 9.01227 21.64 9.10004L16.2 12.22C16.0455 12.3069 15.9169 12.4332 15.8273 12.586C15.7377 12.7389 15.6903 12.9128 15.69 13.09V18.75L10.75 21.58C10.5974 21.6681 10.4708 21.795 10.383 21.9478C10.2952 22.1006 10.2493 22.2738 10.25 22.45V28.69C10.2511 28.8646 10.2978 29.0358 10.3855 29.1866C10.4732 29.3375 10.5989 29.4628 10.75 29.55L16.2 32.67C16.352 32.7578 16.5245 32.804 16.7 32.804C16.8755 32.804 17.048 32.7578 17.2 32.67L22.15 29.84L27.1 32.67C27.2514 32.7599 27.4239 32.8082 27.6 32.81C27.7727 32.8065 27.9415 32.7582 28.09 32.67L33.54 29.55C33.6911 29.4628 33.8168 29.3375 33.9045 29.1866C33.9922 29.0358 34.039 28.8646 34.04 28.69V22.45C34.0397 22.2728 33.9923 22.0989 33.9027 21.946C33.8131 21.7932 33.6845 21.6669 33.53 21.58ZM22.14 11.12L26.59 13.67V19L22.13 21.56L17.69 18.96V13.67L22.14 11.12ZM16.69 30.65L12.25 28.11V23L16.93 20.32L21.33 22.89V28L16.69 30.65ZM32 28.11L27.56 30.65L22.93 28V22.93L27.39 20.36L32 23V28.11Z" fill="#F7C906"/>
<path d="M7.00008 27.4299C6.73486 27.4299 6.48051 27.3245 6.29297 27.137C6.10544 26.9494 6.00008 26.6951 6.00008 26.4299V19.8999C5.99398 19.7186 6.03728 19.5391 6.12535 19.3806C6.21343 19.222 6.34296 19.0904 6.50008 18.9999L11.4501 16.1699V10.5399C11.4494 10.3637 11.4953 10.1904 11.5831 10.0376C11.6709 9.88484 11.7975 9.75797 11.9501 9.66987L17.1601 6.66987C17.2742 6.60375 17.4003 6.56086 17.5311 6.54368C17.6619 6.52649 17.7947 6.53535 17.9221 6.56975C18.0494 6.60414 18.1687 6.66338 18.273 6.74406C18.3774 6.82475 18.4647 6.92528 18.5301 7.03987C18.5958 7.1546 18.6381 7.28122 18.6546 7.41241C18.671 7.5436 18.6613 7.67675 18.626 7.80416C18.5906 7.93157 18.5304 8.0507 18.4487 8.15467C18.367 8.25864 18.2655 8.34538 18.1501 8.40987L13.4501 11.0899V16.7499C13.4498 16.9271 13.4024 17.101 13.3128 17.2539C13.2232 17.4067 13.0945 17.533 12.9401 17.6199L8.00008 20.4799V26.4299C8.00008 26.6951 7.89472 26.9494 7.70718 27.137C7.51965 27.3245 7.26529 27.4299 7.00008 27.4299Z" fill="#F7C906"/>
<path d="M3 25.05C2.73478 25.05 2.48043 24.9446 2.29289 24.7571C2.10536 24.5695 2 24.3152 2 24.05V17.53C2.00105 17.3554 2.04776 17.1842 2.13547 17.0334C2.22319 16.8825 2.34886 16.7572 2.5 16.67L7.5 13.83V8.16996C7.50105 7.99545 7.54776 7.82425 7.63547 7.67338C7.72319 7.5225 7.84886 7.39722 8 7.30996L13.25 4.30996C13.4807 4.17735 13.7547 4.14184 14.0116 4.21122C14.2686 4.28061 14.4874 4.44922 14.62 4.67996C14.7526 4.9107 14.7881 5.18466 14.7187 5.44159C14.6493 5.69851 14.4807 5.91735 14.25 6.04996L9.45 8.74996V14.41C9.44969 14.5872 9.40231 14.7611 9.3127 14.914C9.22309 15.0668 9.09447 15.1931 8.94 15.28L4 18.11V24.05C4 24.3152 3.89464 24.5695 3.70711 24.7571C3.51957 24.9446 3.26522 25.05 3 25.05Z" fill="#F7C906"/>
</svg>
