<svg width="30" height="32" viewBox="0 0 30 32" fill="none" xmlns="http://www.w3.org/2000/svg">
<path d="M1.99991 27.9993C1.99991 28.2805 2.05199 28.5409 2.15616 28.7805C2.26032 29.0201 2.40094 29.2284 2.57801 29.4055C2.75509 29.5825 2.96862 29.7284 3.21861 29.8429C3.4686 29.9575 3.729 30.0096 3.99983 29.9992H13.9994V31.9991H3.99983C3.44777 31.9991 2.93216 31.8949 2.45302 31.6866C1.97387 31.4783 1.54681 31.1918 1.17182 30.8273C0.79684 30.4627 0.510395 30.0408 0.312486 29.5617C0.114578 29.0826 0.0104162 28.5617 0 27.9993V8.00014H3.99983V6.00023C3.99983 5.17735 4.15607 4.40134 4.46856 3.6722C4.78104 2.94307 5.20811 2.30768 5.74975 1.76604C6.29139 1.22439 6.92678 0.79212 7.65592 0.469218C8.38505 0.146315 9.16627 -0.00992795 9.99957 0.00048826C11.0829 0.00048826 12.088 0.27131 13.0151 0.812953C13.9421 0.27131 14.9369 0.00048826 15.9993 0.00048826C16.8222 0.00048826 17.5982 0.156731 18.3273 0.469218C19.0565 0.781704 19.6919 1.20877 20.2335 1.75041C20.7751 2.29206 21.2074 2.93265 21.5303 3.6722C21.8532 4.41175 22.0095 5.18776 21.999 6.00023V8.00014H25.9989V10.0001H1.99991V27.9993ZM19.9991 6.00023C19.9991 5.44817 19.895 4.93257 19.6866 4.45342C19.4783 3.97427 19.1919 3.54721 18.8273 3.17223C18.4627 2.79724 18.0409 2.5108 17.5617 2.31289C17.0826 2.11498 16.5618 2.01082 15.9993 2.0004C15.5306 2.0004 15.0879 2.07852 14.6712 2.23477C14.9733 2.60975 15.2129 2.97953 15.39 3.34409C15.567 3.70866 15.6972 4.07323 15.7806 4.4378C15.8639 4.80236 15.9212 5.17214 15.9524 5.54712C15.9837 5.92211 15.9993 6.32313 15.9993 6.75019V8.00014H19.9991V6.00023ZM5.99974 8.00014H13.9994V6.00023C13.9994 5.44817 13.8952 4.93257 13.6869 4.45342C13.4786 3.97427 13.1921 3.54721 12.8276 3.17223C12.463 2.79724 12.0411 2.5108 11.562 2.31289C11.0829 2.11498 10.562 2.01082 9.99957 2.0004C9.44751 2.0004 8.9319 2.10456 8.45276 2.31289C7.97361 2.52121 7.54655 2.80766 7.17156 3.17223C6.79658 3.53679 6.51013 3.95865 6.31223 4.4378C6.11432 4.91694 6.01016 5.43775 5.99974 6.00023V8.00014ZM27.9988 12C28.28 12 28.5404 12.052 28.78 12.1562C29.0196 12.2604 29.2279 12.401 29.405 12.5781C29.582 12.7551 29.7279 12.9687 29.8425 13.2187C29.957 13.4687 30.0091 13.7291 29.9987 13.9999V31.9991H15.9993V13.9999C15.9993 13.7186 16.0514 13.4582 16.1555 13.2187C16.2597 12.9791 16.4003 12.7708 16.5774 12.5937C16.7545 12.4166 16.968 12.2708 17.218 12.1562C17.468 12.0416 17.7284 11.9895 17.9992 12H27.9988ZM27.9988 13.9999H17.9992V29.9992H27.9988V13.9999ZM25.9989 27.9993H19.9991V25.9994H25.9989V27.9993ZM25.9989 23.9994H19.9991V21.9995H25.9989V23.9994ZM25.9989 17.9997H19.9991V15.9998H25.9989V17.9997Z" fill="#0877BD"/>
</svg>
