<svg width="14" height="14" viewBox="0 0 14 14" fill="none" xmlns="http://www.w3.org/2000/svg">
<path d="M0.892578 11.1651V10.5608C0.892578 9.439 1.33821 8.36315 2.13144 7.56992C2.92467 6.77669 4.00053 6.33105 5.12233 6.33105" stroke="white" stroke-width="1.1" stroke-linecap="round" stroke-linejoin="round"/>
<path d="M9.23333 6.52014C9.32495 6.41958 9.43655 6.33925 9.56099 6.28428C9.68543 6.22932 9.81998 6.20093 9.95601 6.20093C10.0921 6.20093 10.2266 6.22932 10.351 6.28428C10.4755 6.33925 10.5871 6.41958 10.6787 6.52014C10.8751 6.73585 11.1561 6.85247 11.4473 6.83858C11.5833 6.8322 11.719 6.85428 11.846 6.90341C11.9729 6.95253 12.0882 7.02762 12.1844 7.12386C12.2807 7.2201 12.3557 7.33537 12.4049 7.4623C12.454 7.58923 12.4761 7.72501 12.4697 7.86097C12.4558 8.15161 12.5724 8.43319 12.7875 8.62957C13.2135 9.0175 13.2135 9.68701 12.7875 10.0749C12.5724 10.2713 12.4558 10.5523 12.4697 10.8435C12.4761 10.9795 12.454 11.1153 12.4049 11.2422C12.3557 11.3691 12.2807 11.4844 12.1844 11.5807C12.0882 11.6769 11.9729 11.752 11.846 11.8011C11.719 11.8502 11.5833 11.8723 11.4473 11.8659C11.3037 11.8591 11.1604 11.8841 11.0275 11.939C10.8947 11.994 10.7756 12.0775 10.6787 12.1838C10.5871 12.2843 10.4755 12.3647 10.351 12.4196C10.2266 12.4746 10.0921 12.503 9.95601 12.503C9.81998 12.503 9.68543 12.4746 9.56099 12.4196C9.43655 12.3647 9.32495 12.2843 9.23333 12.1838C9.13647 12.0775 9.01736 11.994 8.88451 11.939C8.75166 11.8841 8.60833 11.8591 8.46473 11.8659C8.32877 11.8723 8.19299 11.8502 8.06606 11.8011C7.93913 11.752 7.82386 11.6769 7.72762 11.5807C7.63138 11.4844 7.55629 11.3691 7.50717 11.2422C7.45804 11.1153 7.43596 10.9795 7.44234 10.8435C7.44905 10.6999 7.42399 10.5565 7.36895 10.4237C7.31391 10.2908 7.23023 10.1717 7.1239 10.0749C7.02334 9.98331 6.94301 9.87171 6.88804 9.74727C6.83308 9.62283 6.80469 9.48829 6.80469 9.35225C6.80469 9.21622 6.83308 9.08167 6.88804 8.95723C6.94301 8.83279 7.02334 8.72119 7.1239 8.62957C7.33961 8.43319 7.45623 8.15221 7.44234 7.86097C7.43596 7.72501 7.45804 7.58923 7.50717 7.4623C7.55629 7.33537 7.63138 7.2201 7.72762 7.12386C7.82386 7.02762 7.93913 6.95253 8.06606 6.90341C8.19299 6.85428 8.32877 6.8322 8.46473 6.83858C8.75537 6.85247 9.03695 6.73585 9.23333 6.52014Z" stroke="white" stroke-width="1.1"/>
<path d="M8.96752 9.35232L9.62615 10.0109L10.9446 8.69368M5.12208 6.33107C5.7631 6.33107 6.37788 6.07642 6.83115 5.62315C7.28443 5.16987 7.53908 4.5551 7.53908 3.91407C7.53908 3.27304 7.28443 2.65827 6.83115 2.20499C6.37788 1.75172 5.7631 1.49707 5.12208 1.49707C4.48105 1.49707 3.86628 1.75172 3.413 2.20499C2.95973 2.65827 2.70508 3.27304 2.70508 3.91407C2.70508 4.5551 2.95973 5.16987 3.413 5.62315C3.86628 6.07642 4.48105 6.33107 5.12208 6.33107Z" stroke="white" stroke-width="1.1" stroke-linecap="round" stroke-linejoin="round"/>
</svg>
