<svg width="14" height="14" viewBox="0 0 14 14" fill="none" xmlns="http://www.w3.org/2000/svg">
<path d="M12.25 4.28929V9.71079C12.25 9.77328 12.2333 9.83464 12.2016 9.88849C12.1699 9.94235 12.1244 9.98673 12.0697 10.017L7.16975 12.7389C7.11781 12.7677 7.05939 12.7828 7 12.7828C6.94061 12.7828 6.88219 12.7677 6.83025 12.7389L1.93025 10.017C1.8756 9.98673 1.83006 9.94235 1.79837 9.88849C1.76667 9.83464 1.74997 9.77328 1.75 9.71079V4.28929C1.75007 4.2269 1.76682 4.16566 1.79852 4.11192C1.83021 4.05818 1.87569 4.01388 1.93025 3.98362L6.83025 1.26121C6.88219 1.2324 6.94061 1.21729 7 1.21729C7.05939 1.21729 7.11781 1.2324 7.16975 1.26121L12.0697 3.98362C12.1243 4.01388 12.1698 4.05818 12.2015 4.11192C12.2332 4.16566 12.2499 4.2269 12.25 4.28929Z" stroke="#848484" stroke-width="1.1" stroke-linecap="round" stroke-linejoin="round"/>
<path d="M11.9587 9.7545L7.17008 7.0945C7.11814 7.06569 7.05972 7.05058 7.00033 7.05058C6.94093 7.05058 6.88252 7.06569 6.83058 7.0945L2.04199 9.7545M2.05833 4.25483L6.82999 6.9055C6.882 6.93441 6.94053 6.94958 7.00003 6.94958C7.05954 6.94958 7.11806 6.93441 7.17008 6.9055L11.9587 4.2455M7.00033 12.25V1.75" stroke="#848484" stroke-width="1.1" stroke-linecap="round" stroke-linejoin="round"/>
</svg>
