<svg width="18" height="18" viewBox="0 0 18 18" fill="none" xmlns="http://www.w3.org/2000/svg">
<path d="M2.145 2.15779L11.5725 0.811539C11.6257 0.803907 11.6799 0.807801 11.7315 0.822958C11.7831 0.838115 11.8308 0.864181 11.8714 0.899389C11.912 0.934596 11.9446 0.978123 11.9669 1.02702C11.9892 1.07592 12.0008 1.12904 12.0008 1.18279V16.8173C12.0007 16.871 11.9892 16.924 11.9669 16.9729C11.9447 17.0217 11.9122 17.0652 11.8716 17.1004C11.8311 17.1356 11.7835 17.1616 11.732 17.1769C11.6805 17.1921 11.6264 17.1961 11.5733 17.1885L2.14425 15.8423C1.96546 15.8168 1.80187 15.7277 1.68352 15.5913C1.56516 15.4549 1.5 15.2804 1.5 15.0998V2.90029C1.5 2.7197 1.56516 2.54517 1.68352 2.40877C1.80187 2.27237 1.96621 2.18325 2.145 2.15779ZM3.00075 3.55129V14.4488L10.5008 15.5205V2.47954L3.00075 3.55129ZM12.7508 14.25H15.0007V3.75004H12.7508V2.25004H15.7507C15.9497 2.25004 16.1404 2.32906 16.2811 2.46971C16.4217 2.61036 16.5007 2.80113 16.5007 3.00004V15C16.5007 15.199 16.4217 15.3897 16.2811 15.5304C16.1404 15.671 15.9497 15.75 15.7507 15.75H12.7508V14.25ZM7.65075 9.00004L9.75075 12H7.95075L6.75075 10.2855L5.55075 12H3.75075L5.85075 9.00004L3.75075 6.00004H5.55075L6.75075 7.71454L7.95075 6.00004H9.75075L7.65075 9.00004Z" fill="white"/>
</svg>
