<svg width="16" height="16" viewBox="0 0 16 16" fill="none" xmlns="http://www.w3.org/2000/svg">
<path d="M4.92422 6.69093H5.97722V10.0149C5.97775 10.1911 6.04798 10.36 6.17258 10.4846C6.29717 10.6092 6.46601 10.6794 6.64222 10.6799H9.30122C9.47743 10.6794 9.64626 10.6092 9.77086 10.4846C9.89546 10.36 9.96569 10.1911 9.96622 10.0149V6.69093H11.0242C11.1558 6.69068 11.2844 6.6515 11.3938 6.57831C11.5032 6.50513 11.5885 6.40122 11.639 6.27966C11.6894 6.15811 11.7028 6.02434 11.6774 5.8952C11.652 5.76606 11.589 5.64732 11.4962 5.55393L8.44322 2.50093C8.38173 2.43934 8.3087 2.39048 8.22831 2.35714C8.14792 2.3238 8.06175 2.30664 7.97472 2.30664C7.88769 2.30664 7.80151 2.3238 7.72112 2.35714C7.64073 2.39048 7.56771 2.43934 7.50622 2.50093L4.45422 5.55493C4.36096 5.64788 4.2974 5.76642 4.27158 5.89553C4.24576 6.02463 4.25885 6.1585 4.30919 6.28016C4.35952 6.40183 4.44484 6.50581 4.55433 6.57894C4.66382 6.65206 4.79255 6.69104 4.92422 6.69093ZM3.32422 12.6749C3.32475 12.8511 3.39498 13.02 3.51958 13.1446C3.64417 13.2692 3.81301 13.3394 3.98922 13.3399H11.9672C12.1436 13.3399 12.3127 13.2699 12.4374 13.1452C12.5622 13.0204 12.6322 12.8513 12.6322 12.6749C12.6322 12.4986 12.5622 12.3294 12.4374 12.2047C12.3127 12.08 12.1436 12.0099 11.9672 12.0099H3.98922C3.81301 12.0105 3.64417 12.0807 3.51958 12.2053C3.39498 12.3299 3.32475 12.4987 3.32422 12.6749Z" fill="white"/>
</svg>
