<svg width="13" height="14" viewBox="0 0 13 14" fill="none" xmlns="http://www.w3.org/2000/svg">
<path d="M0.75 9.5V4.5C0.75 3.6712 1.07924 2.87634 1.66529 2.29029C2.25134 1.70424 3.0462 1.375 3.875 1.375H8.875C9.7038 1.375 10.4987 1.70424 11.0847 2.29029C11.6708 2.87634 12 3.6712 12 4.5V9.5C12 10.3288 11.6708 11.1237 11.0847 11.7097C10.4987 12.2958 9.7038 12.625 8.875 12.625H3.875C3.0462 12.625 2.25134 12.2958 1.66529 11.7097C1.07924 11.1237 0.75 10.3288 0.75 9.5Z" stroke="#848484" stroke-width="1.1"/>
<path d="M9.1875 8.5625C9.1875 8.5625 8.25 9.8125 6.375 9.8125C4.5 9.8125 3.5625 8.5625 3.5625 8.5625" stroke="#848484" stroke-width="1.1" stroke-linecap="round" stroke-linejoin="round"/>
<path d="M4.1875 5.75C4.10462 5.75 4.02513 5.71708 3.96653 5.65847C3.90792 5.59987 3.875 5.52038 3.875 5.4375C3.875 5.35462 3.90792 5.27513 3.96653 5.21653C4.02513 5.15792 4.10462 5.125 4.1875 5.125C4.27038 5.125 4.34987 5.15792 4.40847 5.21653C4.46708 5.27513 4.5 5.35462 4.5 5.4375C4.5 5.52038 4.46708 5.59987 4.40847 5.65847C4.34987 5.71708 4.27038 5.75 4.1875 5.75ZM8.5625 5.75C8.47962 5.75 8.40013 5.71708 8.34153 5.65847C8.28292 5.59987 8.25 5.52038 8.25 5.4375C8.25 5.35462 8.28292 5.27513 8.34153 5.21653C8.40013 5.15792 8.47962 5.125 8.5625 5.125C8.64538 5.125 8.72487 5.15792 8.78347 5.21653C8.84208 5.27513 8.875 5.35462 8.875 5.4375C8.875 5.52038 8.84208 5.59987 8.78347 5.65847C8.72487 5.71708 8.64538 5.75 8.5625 5.75Z" fill="#848484" stroke="#848484" stroke-width="1.1" stroke-linecap="round" stroke-linejoin="round"/>
</svg>
