<svg width="16" height="12" viewBox="0 0 16 12" fill="none" xmlns="http://www.w3.org/2000/svg">
<path d="M1.25 11.3125V10.6875C1.25 9.52718 1.71094 8.41438 2.53141 7.59391C3.35188 6.77344 4.46468 6.3125 5.625 6.3125C6.78532 6.3125 7.89812 6.77344 8.71859 7.59391C9.53906 8.41438 10 9.52718 10 10.6875V11.3125" stroke="#7F7F7F" stroke-width="1.1" stroke-linecap="round"/>
<path d="M8.75 7.5625C8.75 6.7337 9.07924 5.93884 9.66529 5.35279C10.2513 4.76674 11.0462 4.4375 11.875 4.4375C12.2854 4.4375 12.6917 4.51833 13.0709 4.67538C13.45 4.83242 13.7945 5.06261 14.0847 5.35279C14.3749 5.64297 14.6051 5.98747 14.7621 6.36661C14.9192 6.74576 15 7.15212 15 7.5625V7.875" stroke="#7F7F7F" stroke-width="1.1" stroke-linecap="round"/>
<path d="M5.625 6.3125C6.28804 6.3125 6.92393 6.04911 7.39277 5.58027C7.86161 5.11143 8.125 4.47554 8.125 3.8125C8.125 3.14946 7.86161 2.51357 7.39277 2.04473C6.92393 1.57589 6.28804 1.3125 5.625 1.3125C4.96196 1.3125 4.32607 1.57589 3.85723 2.04473C3.38839 2.51357 3.125 3.14946 3.125 3.8125C3.125 4.47554 3.38839 5.11143 3.85723 5.58027C4.32607 6.04911 4.96196 6.3125 5.625 6.3125ZM11.875 4.4375C12.3723 4.4375 12.8492 4.23996 13.2008 3.88833C13.5525 3.53669 13.75 3.05978 13.75 2.5625C13.75 2.06522 13.5525 1.58831 13.2008 1.23667C12.8492 0.885044 12.3723 0.6875 11.875 0.6875C11.3777 0.6875 10.9008 0.885044 10.5492 1.23667C10.1975 1.58831 10 2.06522 10 2.5625C10 3.05978 10.1975 3.53669 10.5492 3.88833C10.9008 4.23996 11.3777 4.4375 11.875 4.4375Z" stroke="#7F7F7F" stroke-width="1.1" stroke-linecap="round" stroke-linejoin="round"/>
</svg>
