<svg width="32" height="32" viewBox="0 0 32 32" fill="none" xmlns="http://www.w3.org/2000/svg">
<path d="M6.40002 7.20005H18.4M6.40002 15.6H18.4M6.40002 24H18.4M22 26.6916L24.5452 24.1452M24.5452 24.1452L27.0916 21.6M24.5452 24.1452L22 21.6M24.5452 24.1452L27.0916 26.6916M24.4 18C25.0365 18 25.647 17.7472 26.0971 17.2971C26.5472 16.847 26.8 16.2366 26.8 15.6C26.8 14.9635 26.5472 14.3531 26.0971 13.903C25.647 13.4529 25.0365 13.2 24.4 13.2C23.7635 13.2 23.1531 13.4529 22.703 13.903C22.2529 14.3531 22 14.9635 22 15.6C22 16.2366 22.2529 16.847 22.703 17.2971C23.1531 17.7472 23.7635 18 24.4 18ZM24.4 9.60005C25.0365 9.60005 25.647 9.34719 26.0971 8.8971C26.5472 8.44702 26.8 7.83657 26.8 7.20005C26.8 6.56353 26.5472 5.95308 26.0971 5.50299C25.647 5.05291 25.0365 4.80005 24.4 4.80005C23.7635 4.80005 23.1531 5.05291 22.703 5.50299C22.2529 5.95308 22 6.56353 22 7.20005C22 7.83657 22.2529 8.44702 22.703 8.8971C23.1531 9.34719 23.7635 9.60005 24.4 9.60005Z" stroke="#0877BD" stroke-width="2.2" stroke-linecap="round" stroke-linejoin="round"/>
</svg>
