<svg width="32" height="32" viewBox="0 0 32 32" fill="none" xmlns="http://www.w3.org/2000/svg">
<path d="M27.3134 4H21.9907L22.6574 10.6667C22.6574 10.6667 23.9907 12 25.9907 12C27.0406 12.0014 28.0548 11.6192 28.8427 10.9253C28.926 10.8475 28.9881 10.7497 29.0231 10.6412C29.0581 10.5328 29.0648 10.4172 29.0427 10.3053L28.1014 4.66667C28.0699 4.48039 27.9735 4.31127 27.8293 4.18925C27.6851 4.06723 27.5023 4.00019 27.3134 4Z" stroke="#0877BD" stroke-width="2.2"/>
<path d="M21.9907 4L22.6574 10.6667C22.6574 10.6667 21.3241 12 19.3241 12C17.3241 12 15.9907 10.6667 15.9907 10.6667V4H21.9907Z" stroke="#0877BD" stroke-width="2.2"/>
<path d="M15.9906 4V10.6667C15.9906 10.6667 14.6573 12 12.6573 12C10.6573 12 9.32397 10.6667 9.32397 10.6667L9.99064 4H15.9906Z" stroke="#0877BD" stroke-width="2.2"/>
<path d="M9.99062 4H4.66929C4.47995 3.99993 4.29672 4.06702 4.15219 4.18933C4.00766 4.31164 3.9112 4.48126 3.87996 4.668L2.93996 10.3067C2.90129 10.536 2.96662 10.772 3.13996 10.9267C3.57729 11.3133 4.55462 12.0013 5.99062 12.0013C7.99062 12.0013 9.32396 10.668 9.32396 10.668L9.99062 4Z" stroke="#0877BD" stroke-width="2.2"/>
<path d="M4 12V25.3333C4 26.0406 4.28095 26.7189 4.78105 27.219C5.28115 27.719 5.95942 28 6.66667 28H25.3333C26.0406 28 26.7189 27.719 27.219 27.219C27.719 26.7189 28 26.0406 28 25.3333V12" stroke="#0877BD" stroke-width="2.2"/>
<path d="M19.7773 28V20C19.7773 19.2928 19.4964 18.6145 18.9963 18.1144C18.4962 17.6143 17.8179 17.3334 17.1107 17.3334H14.444C13.7368 17.3334 13.0585 17.6143 12.5584 18.1144C12.0583 18.6145 11.7773 19.2928 11.7773 20V28" stroke="#0877BD" stroke-width="2.2" stroke-miterlimit="16"/>
</svg>
