<svg width="33" height="33" viewBox="0 0 33 33" fill="none" xmlns="http://www.w3.org/2000/svg">
<path d="M9.71662 12.1119L9.72853 12.0988M14.4833 12.1119L14.4952 12.0988M9.71662 16.8785L9.72853 16.8654M14.4833 16.8785L14.4952 16.8654M9.71662 21.6452L9.72853 21.6321M14.4833 21.6452L14.4952 21.6321M19.25 26.4H5.66495C5.47532 26.4 5.29346 26.3246 5.15937 26.1905C5.02528 26.0564 4.94995 25.8746 4.94995 25.685V8.04828C4.94995 7.85865 5.02528 7.67679 5.15937 7.5427C5.29346 7.40861 5.47532 7.33328 5.66495 7.33328H12.1V5.66495C12.1 5.47532 12.1753 5.29346 12.3094 5.15937C12.4435 5.02528 12.6253 4.94995 12.815 4.94995H18.5349C18.7246 4.94995 18.9064 5.02528 19.0405 5.15937C19.1746 5.29346 19.25 5.47532 19.25 5.66495V12.1M19.25 26.4H25.6849C25.8746 26.4 26.0564 26.3246 26.1905 26.1905C26.3246 26.0564 26.4 25.8746 26.4 25.685V12.815C26.4 12.6253 26.3246 12.4435 26.1905 12.3094C26.0564 12.1753 25.8746 12.1 25.6849 12.1H19.25M19.25 26.4V21.6333M19.25 12.1V16.8666M19.25 21.6333V16.8666M19.25 21.6333H21.6333M19.25 16.8666H21.6333" stroke="#0877BD" stroke-width="2.2" stroke-linecap="round" stroke-linejoin="round"/>
</svg>
