<svg width="32" height="32" viewBox="0 0 32 32" fill="none" xmlns="http://www.w3.org/2000/svg">
<path d="M1.33337 26.6667V25.3333C1.33337 22.858 2.3167 20.484 4.06704 18.7337C5.81738 16.9833 8.19135 16 10.6667 16C13.1421 16 15.516 16.9833 17.2664 18.7337C19.0167 20.484 20 22.858 20 25.3333V26.6667" stroke="#0877BD" stroke-width="2.2" stroke-linecap="round"/>
<path d="M17.3334 18.6667C17.3334 16.8986 18.0358 15.2029 19.286 13.9526C20.5362 12.7024 22.2319 12 24 12C24.8755 12 25.7424 12.1724 26.5513 12.5075C27.3601 12.8425 28.095 13.3336 28.7141 13.9526C29.3331 14.5717 29.8242 15.3066 30.1592 16.1154C30.4943 16.9243 30.6667 17.7912 30.6667 18.6667V19.3333" stroke="#0877BD" stroke-width="2.2" stroke-linecap="round"/>
<path d="M10.6667 16C12.0812 16 13.4377 15.4381 14.4379 14.4379C15.4381 13.4377 16 12.0812 16 10.6667C16 9.25218 15.4381 7.89562 14.4379 6.89543C13.4377 5.89524 12.0812 5.33333 10.6667 5.33333C9.25222 5.33333 7.89566 5.89524 6.89547 6.89543C5.89528 7.89562 5.33337 9.25218 5.33337 10.6667C5.33337 12.0812 5.89528 13.4377 6.89547 14.4379C7.89566 15.4381 9.25222 16 10.6667 16ZM24 12C25.0609 12 26.0783 11.5786 26.8285 10.8284C27.5786 10.0783 28 9.06087 28 8C28 6.93913 27.5786 5.92172 26.8285 5.17157C26.0783 4.42143 25.0609 4 24 4C22.9392 4 21.9218 4.42143 21.1716 5.17157C20.4215 5.92172 20 6.93913 20 8C20 9.06087 20.4215 10.0783 21.1716 10.8284C21.9218 11.5786 22.9392 12 24 12Z" stroke="#0877BD" stroke-width="2.2" stroke-linecap="round" stroke-linejoin="round"/>
</svg>
