<svg width="35" height="35" viewBox="0 0 35 35" fill="none" xmlns="http://www.w3.org/2000/svg">
<path d="M26.9792 20.4312L26.9938 20.4152M10.9375 20.4312L10.9521 20.4152M5.83337 26.25V14.5833C5.83337 13.8097 6.14066 13.0679 6.68765 12.5209C7.23463 11.9739 7.97649 11.6666 8.75004 11.6666H29.1667C29.9403 11.6666 30.6821 11.9739 31.2291 12.5209C31.7761 13.0679 32.0834 13.8097 32.0834 14.5833V26.25C32.0834 27.0235 31.7761 27.7654 31.2291 28.3124C30.6821 28.8593 29.9403 29.1666 29.1667 29.1666H8.75004C7.97649 29.1666 7.23463 28.8593 6.68765 28.3124C6.14066 27.7654 5.83337 27.0235 5.83337 26.25Z" stroke="#0877BD" stroke-width="2.2" stroke-linecap="round" stroke-linejoin="round"/>
<path d="M5.83337 23.3334H4.37504C3.60149 23.3334 2.85963 23.0261 2.31265 22.4791C1.76566 21.9321 1.45837 21.1903 1.45837 20.4167V8.75004C1.45837 7.97649 1.76566 7.23463 2.31265 6.68765C2.85963 6.14066 3.60149 5.83337 4.37504 5.83337H24.7917C25.5653 5.83337 26.3071 6.14066 26.8541 6.68765C27.4011 7.23463 27.7084 7.97649 27.7084 8.75004V11.6667M18.9584 23.3334C18.1848 23.3334 17.443 23.0261 16.896 22.4791C16.349 21.9321 16.0417 21.1903 16.0417 20.4167C16.0417 19.6432 16.349 18.9013 16.896 18.3543C17.443 17.8073 18.1848 17.5 18.9584 17.5C19.7319 17.5 20.4738 17.8073 21.0208 18.3543C21.5677 18.9013 21.875 19.6432 21.875 20.4167C21.875 21.1903 21.5677 21.9321 21.0208 22.4791C20.4738 23.0261 19.7319 23.3334 18.9584 23.3334Z" stroke="#0877BD" stroke-width="2.2" stroke-linecap="round" stroke-linejoin="round"/>
</svg>
