<svg width="14" height="16" viewBox="0 0 14 16" fill="none" xmlns="http://www.w3.org/2000/svg">
<path d="M9.66667 1.33325L12.7107 2.55125C12.7933 2.58428 12.8625 2.64391 12.9074 2.7207C12.9523 2.79749 12.9704 2.88706 12.9587 2.97525L11.8413 11.3586C11.7871 11.7652 11.6391 12.1539 11.4102 12.4943C11.1812 12.8347 10.8768 13.1177 10.5207 13.3213L10.3073 13.4433C9.3 14.0189 8.15988 14.3217 6.99967 14.3217C5.83946 14.3217 4.69934 14.0189 3.692 13.4433L3.47867 13.3213C3.1225 13.1177 2.8181 12.8347 2.58916 12.4943C2.36022 12.1539 2.2129 11.7652 2.15867 11.3586L1.02667 2.86259C1.01846 2.80164 1.02441 2.73961 1.04407 2.68134C1.06372 2.62307 1.09655 2.57011 1.14 2.52659L2.33333 1.33325L5.54533 2.33325M9.66667 1.33325H6L5.54533 2.33325M9.66667 1.33325L8.33333 4.66659M5.54533 2.33325L5 4.33325M1 3.33325C2.714 5.11125 11.286 5.11125 13 3.33325" stroke="#0877BD" stroke-width="1.5"/>
</svg>
