<svg width="20" height="21" viewBox="0 0 20 21" fill="none" xmlns="http://www.w3.org/2000/svg">
<path d="M10.8332 18H3.33317C2.89114 18 2.46722 17.8244 2.15466 17.5118C1.8421 17.1993 1.6665 16.7754 1.6665 16.3333V4.66667C1.6665 4.22464 1.8421 3.80072 2.15466 3.48816C2.46722 3.17559 2.89114 3 3.33317 3H16.6665C17.1085 3 17.5325 3.17559 17.845 3.48816C18.1576 3.80072 18.3332 4.22464 18.3332 4.66667V13" stroke="#0877BD" stroke-width="1.5" stroke-linecap="round"/>
<path d="M1.6665 6.33333H18.3332M4.1665 4.675L4.17484 4.66583M6.6665 4.675L6.67484 4.66583M9.1665 4.675L9.17484 4.66583M13.3332 17.1667L14.9998 18.8333L18.3332 15.5" stroke="#0877BD" stroke-width="1.5" stroke-linecap="round" stroke-linejoin="round"/>
</svg>
