<svg width="50" height="50" viewBox="0 0 50 50" fill="none" xmlns="http://www.w3.org/2000/svg">
    <path d="M45.8335 22.9167L39.9856 16.3397C39.2038 15.4598 38.2444 14.7556 37.1707 14.2734C36.0971 13.7911 34.9334 13.5418 33.7564 13.5417H33.3335M45.8335 40.6251H34.3752L26.0418 34.3751C26.0418 34.3751 24.3543 33.2355 21.8752 31.2501C16.6668 27.0834 21.8752 20.4876 27.0835 23.9584C31.3252 26.7855 35.4168 29.1667 35.4168 29.1667" stroke="#0877BD" stroke-width="2.2" stroke-linecap="round" stroke-linejoin="round"/>
    <path d="M33.3335 28.1251V14.5834C33.3335 13.4783 32.8945 12.4185 32.1131 11.6371C31.3317 10.8557 30.2719 10.4167 29.1668 10.4167H8.3335C7.22843 10.4167 6.16862 10.8557 5.38722 11.6371C4.60582 12.4185 4.16683 13.4783 4.16683 14.5834V27.0834C4.16683 28.1885 4.60582 29.2483 5.38722 30.0297C6.16862 30.8111 7.22843 31.2501 8.3335 31.2501H21.8752" stroke="#0877BD" stroke-width="2.2"/>
    <path d="M11.979 25.0001C10.9373 21.8751 10.9373 19.7917 11.979 16.6667M16.6665 18.7501C16.1936 19.7917 16.1936 21.8751 16.6665 22.9167" stroke="#0877BD" stroke-width="2.2" stroke-linecap="round" stroke-linejoin="round"/>
</svg>

