<svg width="50" height="50" viewBox="0 0 50 50" fill="none" xmlns="http://www.w3.org/2000/svg">
    <path d="M38.5418 29.1876L38.5627 29.1647M15.6252 29.1876L15.646 29.1647M8.3335 37.5001V20.8334C8.3335 19.7283 8.77248 18.6685 9.55388 17.8871C10.3353 17.1057 11.3951 16.6667 12.5002 16.6667H41.6668C42.7719 16.6667 43.8317 17.1057 44.6131 17.8871C45.3945 18.6685 45.8335 19.7283 45.8335 20.8334V37.5001C45.8335 38.6051 45.3945 39.665 44.6131 40.4464C43.8317 41.2278 42.7719 41.6667 41.6668 41.6667H12.5002C11.3951 41.6667 10.3353 41.2278 9.55388 40.4464C8.77248 39.665 8.3335 38.6051 8.3335 37.5001Z" stroke="#0877BD" stroke-width="2.2" stroke-linecap="round" stroke-linejoin="round"/>
    <path d="M8.3335 33.3333H6.25016C5.14509 33.3333 4.08529 32.8943 3.30388 32.1129C2.52248 31.3315 2.0835 30.2717 2.0835 29.1666V12.4999C2.0835 11.3948 2.52248 10.335 3.30388 9.55364C4.08529 8.77224 5.14509 8.33325 6.25016 8.33325H35.4168C36.5219 8.33325 37.5817 8.77224 38.3631 9.55364C39.1445 10.335 39.5835 11.3948 39.5835 12.4999V16.6666M27.0835 33.3333C25.9784 33.3333 24.9186 32.8943 24.1372 32.1129C23.3558 31.3315 22.9168 30.2717 22.9168 29.1666C22.9168 28.0615 23.3558 27.0017 24.1372 26.2203C24.9186 25.4389 25.9784 24.9999 27.0835 24.9999C28.1886 24.9999 29.2484 25.4389 30.0298 26.2203C30.8112 27.0017 31.2502 28.0615 31.2502 29.1666C31.2502 30.2717 30.8112 31.3315 30.0298 32.1129C29.2484 32.8943 28.1886 33.3333 27.0835 33.3333Z" stroke="#0877BD" stroke-width="2.2" stroke-linecap="round" stroke-linejoin="round"/>
</svg>
